<?xml version="1.0" encoding="UTF-8" standalone="no"?>
<svg width="60px" height="61px" viewBox="0 0 60 61" version="1.1" xmlns="http://www.w3.org/2000/svg" xmlns:xlink="http://www.w3.org/1999/xlink">
    <!-- Generator: Sketch 40.1 (33804) - http://www.bohemiancoding.com/sketch -->
    <title>26 -Google Chrome- (social, media, communication, retro)</title>
    <desc>Created with Sketch.</desc>
    <defs></defs>
    <g id="Page-1" stroke="none" stroke-width="1" fill="none" fill-rule="evenodd">
        <g id="Icons" transform="translate(-720.000000, -618.000000)">
            <g id="26--Google-Chrome--(social,-media,-communication,-retro)" transform="translate(721.000000, 619.000000)">
                <path d="M29,43.8408 C26.055,43.8408 23.374,43.0468 20.956,41.4628 C18.538,39.8768 16.726,37.8378 15.519,35.3458 L3.625,14.4998 C1.133,18.9568 0,23.9418 0,28.9998 C0,36.2498 2.36,42.5758 7.08,47.9748 C11.799,53.3748 17.672,56.6028 24.695,57.6608 L33.107,43.1048 C32.261,43.3528 30.849,43.8408 29,43.8408" id="Fill-119" fill="#00D812"></path>
                <path d="M19.8813,17.0001 C22.5603,14.9251 25.6013,14.0001 29.0003,14.0001 L53.9223,14.0001 C51.3533,9.6211 47.8613,6.4201 43.4433,3.8521 C39.0253,1.2851 34.2113,0.0001 29.0003,0.0001 C24.4683,0.0001 20.2383,0.9621 16.3123,2.8891 C12.3853,4.8141 8.7503,7.6181 6.0883,11.2161 L14.5003,25.0001 C15.3303,21.7541 17.1993,19.0791 19.8813,17.0001" id="Fill-120" fill="#E83A00"></path>
                <path d="M55.8196,18.1251 L38.9686,18.1251 C41.9136,21.0701 43.8406,24.8481 43.8406,29.0001 C43.8406,32.0981 42.9726,34.9291 41.2346,37.4971 L29.3406,58.0001 C37.2706,57.9241 44.0296,55.0551 49.6186,49.3911 C55.2056,43.7271 57.9996,36.9301 57.9996,29.0001 C57.9996,25.3011 57.3766,21.4091 55.8196,18.1251" id="Fill-121" fill="#FCD100"></path>
                <path d="M29,18.0001 C35.006,18.0001 40,22.9941 40,29.0001 C40,35.0061 35.006,40.0001 29,40.0001 C22.994,40.0001 18,35.0061 18,29.0001 C18,22.9941 22.994,18.0001 29,18.0001" id="Fill-122" fill="#00B1E1"></path>
                <path d="M29,43.8408 C26.055,43.8408 23.374,43.0468 20.956,41.4628 C18.538,39.8768 16.726,37.8378 15.519,35.3458 L3.625,14.4998 C1.133,18.9568 0,23.9418 0,28.9998 C0,36.2498 2.36,42.5758 7.08,47.9748 C11.799,53.3748 17.672,56.6028 24.695,57.6608 L33.107,43.1048 C32.261,43.3528 30.849,43.8408 29,43.8408 L29,43.8408 Z" id="Stroke-205" stroke="#000000" stroke-width="2"></path>
                <path d="M19.8813,17.0001 C22.5603,14.9251 25.6013,14.0001 29.0003,14.0001 L53.9223,14.0001 C51.3533,9.6211 47.8613,6.4201 43.4433,3.8521 C39.0253,1.2851 34.2113,0.0001 29.0003,0.0001 C24.4683,0.0001 20.2383,0.9621 16.3123,2.8891 C12.3853,4.8141 8.7503,7.6181 6.0883,11.2161 L14.5003,25.0001 C15.3303,21.7541 17.1993,19.0791 19.8813,17.0001 L19.8813,17.0001 Z" id="Stroke-206" stroke="#000000" stroke-width="2"></path>
                <path d="M55.8196,18.1251 L38.9686,18.1251 C41.9136,21.0701 43.8406,24.8481 43.8406,29.0001 C43.8406,32.0981 42.9726,34.9291 41.2346,37.4971 L29.3406,58.0001 C37.2706,57.9241 44.0296,55.0551 49.6186,49.3911 C55.2056,43.7271 57.9996,36.9301 57.9996,29.0001 C57.9996,25.3011 57.3766,21.4091 55.8196,18.1251 L55.8196,18.1251 Z" id="Stroke-207" stroke="#000000" stroke-width="2"></path>
                <path d="M29,18.0001 C35.006,18.0001 40,22.9941 40,29.0001 C40,35.0061 35.006,40.0001 29,40.0001 C22.994,40.0001 18,35.0061 18,29.0001 C18,22.9941 22.994,18.0001 29,18.0001 L29,18.0001 Z" id="Stroke-208" stroke="#000000" stroke-width="2"></path>
            </g>
        </g>
    </g>
</svg>